<svg xmlns="http://www.w3.org/2000/svg" width="170" height="24" fill="none"><path fill="#fff" d="M4.337 6.654C4.337 4.014 3 1.832.5 0h5.81A8.347 8.347 0 0 1 9.6 6.654a8.349 8.349 0 0 1-3.29 6.654c1.887.787 2.96 2.707 2.96 5.455V24H4.01v-5.237c0-2.617-1.25-4.45-3.509-5.454 2.5-1.833 3.838-4.013 3.838-6.654h-.002zm11.403 0c0-2.64-1.337-4.822-3.837-6.654h5.812a8.348 8.348 0 0 1 3.288 6.654 8.349 8.349 0 0 1-3.288 6.654c1.885.787 2.96 2.707 2.96 5.455V24h-5.263v-5.237c0-2.617-1.25-4.45-3.51-5.454 2.5-1.833 3.838-4.013 3.838-6.654zm11.405 0c0-2.64-1.337-4.822-3.837-6.654h5.81a8.347 8.347 0 0 1 3.29 6.654 8.348 8.348 0 0 1-3.29 6.654c1.887.787 2.96 2.707 2.96 5.455V24h-5.262v-5.237c0-2.617-1.25-4.45-3.508-5.454 2.5-1.833 3.837-4.013 3.837-6.654zM48.436 19.64h-3.99V4.363h9.803c4.715 0 7.039 1.747 7.039 4.605 0 1.941-1.14 3.403-3.267 4.146 2.192.326 3.179 1.482 3.179 3.556v2.967h-4.035v-2.793c0-1.746-.877-2.444-3.18-2.444H48.44v5.24h-.003zm5.592-13.051h-5.592v5.587h5.548c2.017 0 3.267-1.113 3.267-2.859 0-1.724-1.16-2.728-3.223-2.728zm14.188-2.226h-3.99V19.64h3.99V4.363zm12.236 10.299h-4.868v4.975h-3.992V4.363h8.947c4.714 0 7.193 1.964 7.193 5.107 0 3.25-2.521 5.192-7.28 5.192zm-.088-8.073h-4.78v5.847h4.736c2.061 0 3.333-1.047 3.333-2.944 0-1.855-1.272-2.903-3.289-2.903zm18.596 8.073h-4.868v4.975H90.1V4.363h8.947c4.714 0 7.193 1.964 7.193 5.107 0 3.25-2.523 5.192-7.28 5.192zm-.088-8.073h-4.78v5.847h4.736c2.061 0 3.333-1.047 3.333-2.944 0-1.855-1.272-2.903-3.289-2.903zm13.727-2.226v13.004h9.956v2.273h-13.947V4.363h3.991zm16.444 0h-3.991V19.64h3.991V4.363zm6.009 5.106v10.17h-2.632V4.364h2.985l10.876 10.168V4.363h2.632V19.64h-2.982L135.052 9.468v.001zm26.888-3.316c-3.795 0-6.272 2.4-6.272 5.978 0 3.533 2.368 5.716 6.052 5.716h.263c1.25 0 2.653-.262 3.948-.676v-4.124h-6.447v-2.182h10.349v7.178c-2.148 1.114-5.394 1.987-8.025 1.987h-.351c-6.053 0-9.956-3.187-9.956-7.813 0-4.581 4.014-8.246 10.175-8.246h.351c2.566 0 5.504.807 7.676 2.072l-1.142 1.854c-1.95-1.068-4.276-1.744-6.358-1.744h-.263z"/></svg>