<svg xmlns="http://www.w3.org/2000/svg" width="113" height="29" fill="none"><path fill="#fff" d="M29.877 21.987V.032h3.411v8.655c1.074-1.6 2.686-2.4 4.833-2.4 1.833 0 3.249.542 4.25 1.626 1 1.085 1.5 2.596 1.5 4.534v9.54h-3.41v-9.066c0-2.506-1.117-3.76-3.35-3.76-1.116 0-2.032.337-2.748 1.011-.715.674-1.074 1.622-1.074 2.843v8.972h-3.412zm30.116-1.895c-1.517 1.516-3.422 2.274-5.718 2.274-2.295 0-4.207-.758-5.734-2.274-1.527-1.516-2.29-3.444-2.29-5.782s.764-4.26 2.29-5.765c1.527-1.505 3.438-2.258 5.734-2.259 2.296 0 4.202.753 5.718 2.26 1.516 1.505 2.275 3.427 2.274 5.764 0 2.337-.758 4.265-2.274 5.782zm-8.956-1.927c.81.947 1.89 1.421 3.238 1.421 1.349 0 2.428-.474 3.238-1.421.81-.948 1.216-2.233 1.216-3.855 0-1.6-.41-2.874-1.232-3.822-.821-.948-1.895-1.422-3.222-1.422-1.348 0-2.427.469-3.238 1.406-.81.937-1.216 2.216-1.216 3.837 0 1.623.405 2.908 1.216 3.856zm19.127 4.201c-3.139 0-4.708-1.685-4.708-5.055v-7.77h-2.369V6.665h2.465l.79-4.517H68.9v4.517h6.097V9.54H68.9v7.677c0 1.411.516 2.117 1.548 2.117.968 0 1.842-.885 2.622-2.654l2.654 1.358c-1.306 2.886-3.16 4.328-5.56 4.328z"/><path fill="#fff" d="M76.82 29c-1.516 0-2.77-.421-3.759-1.264l1.264-2.685c.61.716 1.274 1.074 1.99 1.075.948 0 1.421-.61 1.421-1.832V6.666h3.411v17.69c0 1.643-.405 2.827-1.216 3.554-.81.726-1.847 1.09-3.11 1.09zm2.622-24.925a2.116 2.116 0 0 1-1.516-.568 1.914 1.914 0 0 1-.6-1.454 1.965 1.965 0 0 1 .6-1.469 2.239 2.239 0 0 1 3.017 0 1.942 1.942 0 0 1 .616 1.47 1.904 1.904 0 0 1-.616 1.437 2.1 2.1 0 0 1-1.5.584zM89.62 22.366c-1.748 0-3.164-.437-4.249-1.31-1.084-.875-1.626-2.049-1.626-3.522 0-1.348.563-2.49 1.69-3.429 1.126-.937 2.543-1.406 4.249-1.405 1.748 0 3.222.558 4.422 1.674V12.51c0-1.095-.279-1.942-.837-2.543-.558-.6-1.353-.9-2.385-.9-2.085 0-3.38 1.063-3.886 3.19l-3.127-.663c.42-1.643 1.253-2.938 2.496-3.886 1.243-.947 2.79-1.421 4.643-1.421 2.022 0 3.618.531 4.786 1.595 1.17 1.064 1.753 2.617 1.754 4.66v9.445h-3.317V20.06c-1.117 1.538-2.654 2.306-4.612 2.306zm.631-2.527c1.517 0 2.802-.758 3.855-2.274v-.475c-1.053-1.263-2.338-1.895-3.855-1.895-.884 0-1.6.216-2.148.648a2.017 2.017 0 0 0-.822 1.658 2.066 2.066 0 0 0 .806 1.69c.538.432 1.26.648 2.164.648zm10.618 2.148V6.666h3.317v2.653c.842-1.937 2.295-2.906 4.36-2.906 1.221 0 2.232.4 3.032 1.2.801.8 1.201 1.875 1.2 3.222a7.495 7.495 0 0 1-.41 2.37l-3.128-.316c.065-.419.107-.84.126-1.264 0-1.58-.652-2.369-1.958-2.37-.885 0-1.627.47-2.227 1.407-.6.937-.9 2.174-.901 3.712v7.613h-3.411z"/><path fill="#FF3C00" d="M8.572 9.01c2.542-1.413 6.024-3.348 6.024-8.979H10.38c0 3.15-1.534 4.003-3.856 5.293C3.982 6.737.5 8.67.5 14.302h4.216c0-3.15 1.534-4.003 3.856-5.293zm7.298-1.295c0 3.151-1.535 4.003-3.856 5.293-2.542 1.413-6.025 3.347-6.025 8.978h4.216c0-3.15 1.534-4.002 3.856-5.292 2.542-1.413 6.024-3.347 6.024-8.979H15.87z"/></svg>