<svg xmlns="http://www.w3.org/2000/svg" width="220" height="33" fill="none"><path fill="#fff" fill-rule="evenodd" d="M8.64 17.433 20.933 4.99a4.37 4.37 0 0 1 3.13-1.31c1.184 0 2.296.464 3.13 1.31l.958.969 1.916-1.94-.958-.969A7.043 7.043 0 0 0 24.063.938c-1.908 0-3.7.75-5.046 2.113L6.725 15.494l1.915 1.94z" clip-rule="evenodd"/><path fill="#fff" fill-rule="evenodd" d="m25.087 9.123-1.925-1.936-12.35 12.424a4.434 4.434 0 0 1-6.29.001 4.5 4.5 0 0 1 0-6.328L15.177 2.563 13.253.627 2.598 11.347c-2.796 2.813-2.796 7.39 0 10.201a7.099 7.099 0 0 0 5.069 2.11c1.917 0 3.718-.75 5.07-2.11l12.35-12.425zm12.219 2.327a7.097 7.097 0 0 0-5.07-2.109c-1.917 0-3.718.75-5.07 2.11l-12.35 12.424 1.924 1.937 12.351-12.425a4.435 4.435 0 0 1 6.29 0 4.457 4.457 0 0 1 1.301 3.163 4.46 4.46 0 0 1-1.3 3.165l-10.657 10.72 1.925 1.937 10.656-10.72c2.796-2.813 2.796-7.39 0-10.202z" clip-rule="evenodd"/><path fill="#fff" fill-rule="evenodd" d="M31.263 15.566 18.971 28.009a4.394 4.394 0 0 1-6.26 0l-.958-.97-1.916 1.94.958.97a7.044 7.044 0 0 0 5.046 2.112c1.908 0 3.7-.75 5.045-2.113L33.18 17.505l-1.916-1.94zm19.492 4.174c.158.793.53 1.415 1.114 1.863.583.448 1.35.672 2.302.672.937 0 1.66-.22 2.173-.661.512-.44.767-1.022.767-1.742 0-.353-.068-.65-.205-.893a1.862 1.862 0 0 0-.573-.618 3.54 3.54 0 0 0-.908-.43c-.36-.117-.764-.242-1.21-.375l-1.168-.33a10.365 10.365 0 0 1-1.86-.695 5.751 5.751 0 0 1-1.405-.96 3.72 3.72 0 0 1-.886-1.267c-.202-.478-.303-1.033-.303-1.665 0-.662.13-1.272.39-1.83a4.088 4.088 0 0 1 1.102-1.434c.476-.397 1.052-.71 1.73-.937.677-.228 1.44-.342 2.291-.342 1.6 0 2.868.386 3.806 1.158.936.772 1.484 1.805 1.643 3.098l-2.595.22c-.159-.66-.476-1.175-.951-1.543-.476-.367-1.139-.551-1.99-.551-.792 0-1.412.187-1.858.562a1.8 1.8 0 0 0-.671 1.445c0 .338.065.62.195.848.13.229.317.427.562.596.245.169.544.32.897.452s.753.272 1.2.419l1.103.353c.691.22 1.315.452 1.87.694a5.498 5.498 0 0 1 1.416.871c.39.339.688.743.897 1.213.21.471.314 1.052.314 1.743 0 .735-.145 1.408-.432 2.017a4.441 4.441 0 0 1-1.211 1.555 5.657 5.657 0 0 1-1.85.992c-.713.235-1.502.353-2.366.353-1.6 0-2.934-.382-4-1.146-1.067-.765-1.723-1.92-1.968-3.463l2.638-.243zm20.35-8.962c-.778 0-1.474.146-2.086.438a4.475 4.475 0 0 0-1.556 1.216 5.457 5.457 0 0 0-.973 1.84 7.668 7.668 0 0 0-.335 2.312c0 .833.115 1.607.346 2.323.23.715.558 1.336.983 1.862.425.526.944.938 1.557 1.238.612.299 1.307.448 2.085.448s1.473-.141 2.086-.426a4.421 4.421 0 0 0 1.556-1.195c.425-.51.753-1.128.983-1.85.23-.724.346-1.516.346-2.378 0-.847-.115-1.629-.346-2.344-.23-.715-.558-1.33-.983-1.84a4.518 4.518 0 0 0-1.567-1.206c-.62-.291-1.318-.438-2.096-.438zm.021-2.37c1.167 0 2.234.2 3.2.603a7.03 7.03 0 0 1 2.463 1.69c.677.725 1.202 1.592 1.578 2.601.374 1.01.561 2.115.561 3.315 0 1.244-.198 2.367-.593 3.37a7.538 7.538 0 0 1-1.697 2.6l2.074 2.481v.768h-2.636l-1.449-1.8a8.174 8.174 0 0 1-1.62.549 8.33 8.33 0 0 1-1.859.198c-1.196 0-2.273-.202-3.231-.604a6.933 6.933 0 0 1-2.443-1.69c-.67-.725-1.188-1.588-1.556-2.59-.367-1.003-.55-2.097-.55-3.282 0-1.2.183-2.3.55-3.304a7.565 7.565 0 0 1 1.567-2.59 7.168 7.168 0 0 1 2.453-1.701c.959-.41 2.021-.614 3.188-.614zM89.51 22.32c1.106 0 1.967-.349 2.585-1.047.617-.698.926-1.767.926-3.208V8.408h2.714v9.723c0 1.147-.144 2.128-.431 2.944-.288.815-.697 1.484-1.228 2.006-.531.522-1.185.904-1.96 1.147-.775.242-1.644.363-2.606.363-.977 0-1.849-.12-2.617-.363a4.785 4.785 0 0 1-1.949-1.147c-.531-.522-.94-1.19-1.228-2.006-.287-.816-.43-1.797-.43-2.944V8.408h2.713v9.657c0 1.44.31 2.51.927 3.208.617.698 1.478 1.047 2.584 1.047zm14-4.824h5.193l-.855-2.47a309.16 309.16 0 0 1-.811-2.362c-.204-.607-.387-1.142-.547-1.604h-.679l-.264.736c-.087.246-.186.52-.295.824-.11.304-.23.65-.362 1.04-.131.39-.292.845-.482 1.366l-.898 2.47zm-4.974 6.026 5.587-14.803h4.142l5.521 14.803v.758h-2.717l-1.578-4.443h-6.814L101.1 24.28h-2.564v-.759zm21.364-7.694h2.366c1.041 0 1.862-.19 2.462-.57.601-.379.902-.998.902-1.858 0-.873-.305-1.482-.912-1.825-.608-.344-1.425-.516-2.452-.516H119.9v4.769zm9.136 8.452h-2.626l-4.752-6.112H119.9v6.112h-2.691V8.719h5.057c.795 0 1.551.054 2.267.162a4.687 4.687 0 0 1 1.943.748c1.229.809 1.844 2.03 1.844 3.661 0 .709-.105 1.326-.315 1.854-.21.527-.488.974-.835 1.343a4.342 4.342 0 0 1-1.204.899c-.456.231-.93.404-1.422.52l4.492 5.615v.759zm3.423-15.561h10.118v2.383h-7.442v4.075h6.92v2.34h-6.92v4.379h7.594v2.384h-10.27V8.719zm16.332 11.021c.158.793.53 1.415 1.114 1.863.583.448 1.351.672 2.302.672.937 0 1.661-.22 2.173-.661.511-.44.768-1.022.768-1.742 0-.353-.069-.65-.206-.893a1.857 1.857 0 0 0-.573-.618 3.531 3.531 0 0 0-.908-.43c-.36-.117-.764-.242-1.211-.375l-1.167-.33a10.384 10.384 0 0 1-1.86-.695 5.724 5.724 0 0 1-1.404-.96 3.698 3.698 0 0 1-.887-1.267c-.202-.478-.303-1.033-.303-1.665a4.3 4.3 0 0 1 .389-1.83 4.095 4.095 0 0 1 1.103-1.434c.476-.397 1.052-.71 1.73-.937.677-.228 1.441-.342 2.291-.342 1.6 0 2.868.386 3.805 1.158.937.772 1.485 1.805 1.643 3.098l-2.594.22c-.159-.66-.476-1.175-.951-1.543-.476-.367-1.139-.551-1.989-.551-.793 0-1.413.187-1.859.562a1.8 1.8 0 0 0-.671 1.445c0 .338.065.62.195.848.13.229.317.427.562.596.245.169.544.32.897.452a30.5 30.5 0 0 0 1.2.419l1.103.353c.691.22 1.315.452 1.87.694a5.49 5.49 0 0 1 1.415.871c.39.339.689.743.898 1.213.209.471.314 1.052.314 1.743a4.65 4.65 0 0 1-.433 2.017 4.423 4.423 0 0 1-1.211 1.555 5.644 5.644 0 0 1-1.848.992c-.714.235-1.503.353-2.367.353-1.6 0-2.934-.382-4-1.146-1.067-.765-1.722-1.92-1.968-3.463l2.638-.243zm15.992-3.783h2.647c.486 0 .93-.039 1.335-.118.404-.079.757-.21 1.059-.397.301-.186.537-.437.706-.752.169-.315.253-.702.253-1.16 0-.473-.084-.87-.253-1.192a1.965 1.965 0 0 0-.695-.763 3.024 3.024 0 0 0-1.048-.397 6.885 6.885 0 0 0-1.312-.119h-2.692v4.899zm-2.758-7.238h5.78c1.074 0 1.975.122 2.703.368.728.246 1.316.585 1.765 1.02.448.432.772.941.97 1.527.198.585.298 1.217.298 1.896 0 .81-.136 1.514-.408 2.113a3.811 3.811 0 0 1-1.18 1.485c-.516.39-1.14.682-1.876.877-.735.196-1.566.293-2.492.293h-2.802v5.982h-2.758V8.719zm17.113 8.777h5.193l-.855-2.47c-.337-.968-.607-1.756-.811-2.362-.205-.607-.387-1.142-.548-1.604h-.679a209.108 209.108 0 0 1-.559 1.56c-.109.304-.229.65-.361 1.04a62 62 0 0 1-.482 1.366l-.898 2.47zm-4.974 6.026 5.587-14.803h4.141l5.522 14.803v.758h-2.717l-1.578-4.443h-6.814l-1.578 4.443h-2.563v-.759zm31.744-3.356a7.73 7.73 0 0 1-.971 1.715 6.452 6.452 0 0 1-1.452 1.408 7.001 7.001 0 0 1-1.976.952c-.75.233-1.583.35-2.5.35-1.164 0-2.223-.203-3.176-.608a7.13 7.13 0 0 1-2.441-1.68 7.457 7.457 0 0 1-1.561-2.56c-.367-.99-.55-2.065-.55-3.222s.183-2.23.55-3.222a7.49 7.49 0 0 1 1.571-2.57 7.318 7.318 0 0 1 2.453-1.703c.953-.413 2.019-.618 3.198-.618 1.717 0 3.155.398 4.312 1.193a6.428 6.428 0 0 1 2.456 3.167l-2.772.542c-.379-.795-.907-1.421-1.584-1.877-.677-.455-1.495-.683-2.456-.683-.771 0-1.459.148-2.063.444a4.415 4.415 0 0 0-1.528 1.22 5.5 5.5 0 0 0-.95 1.838 7.65 7.65 0 0 0-.327 2.269c0 .821.112 1.581.338 2.28.225.7.553 1.304.982 1.816.43.511.95.91 1.562 1.199.611.288 1.31.432 2.095.432 1.019 0 1.86-.246 2.522-.737a5.145 5.145 0 0 0 1.539-1.801l2.729.456zm3.561-11.636h10.175v2.408h-7.484v4.114h6.959v2.363h-6.959v4.42h7.638v2.408h-10.329V8.53z" clip-rule="evenodd"/></svg>