<svg xmlns="http://www.w3.org/2000/svg" width="148" height="20" fill="none"><path fill="#fff" d="M88.071 0c-3.03 0-5.992 2.745-6.333 6.71V.327h-4.352v19.245h4.405v-9.315c0-2.61 1.85-6.29 6.28-6.29V0zm46.208 16.49V3.307h2.552c3.402 0 6.167 2.127 6.167 6.486 0 4.36-2.765 6.699-6.167 6.699h-2.552zm-4.359 3.084h7.443c4.572 0 10.207-2.977 10.207-9.782 0-6.699-5.635-9.463-10.207-9.463h-7.443v19.245zm-16.681-9.569c0-3.509 1.808-6.38 4.785-6.38 2.871 0 4.466 2.871 4.466 6.38s-1.595 6.38-4.466 6.38c-2.977 0-4.785-2.871-4.785-6.38zm-4.466.213c0 5.742 2.977 9.782 7.656 9.782 3.402 0 5.422-2.233 6.486-5.848v5.423h4.358V.329h-4.358v5.104C121.958 2.03 119.938.01 116.748.01c-4.785 0-7.975 4.36-7.975 10.208zM9.5 20C4.076 20 .886 15.64.886 10.218.887 4.582 4.396.01 11.094.01c6.912 0 9.251 4.679 9.357 7.337h-4.997c-.107-1.489-1.383-3.722-4.466-3.722-3.296 0-5.423 2.871-5.423 6.38s2.127 6.38 5.423 6.38c2.977 0 4.253-2.34 4.785-4.679h-4.785V9.792h10.04v9.783h-4.405v-6.167C16.304 15.64 14.923 20 9.5 20zm20.459 0c-4.147 0-6.699-2.765-6.699-8.294V.33h4.466v11.377c0 2.87 1.382 4.253 3.721 4.253 4.573 0 6.274-5.635 6.274-9.57V.33h4.466v19.245h-4.36V12.45c-.85 3.934-3.19 7.55-7.868 7.55zM68.873 0c-3.81 0-6.214 3.68-6.998 7.084C61.74 2.524 59.498 0 55.91 0c-3.1 0-5.977 2.765-6.724 7.139V.327h-4.353v19.246h4.409v-6.9c0-1.71.713-8.73 5.152-8.73 2.875 0 3.175 2.594 3.175 6.14v9.49h4.407v-6.9c0-1.71.742-8.73 5.18-8.73 2.874 0 3.17 2.594 3.17 6.14v9.49h4.414V8.19C74.76 2.73 72.832 0 68.873 0zm28.658 0c-5.708 0-9.576 4.476-9.576 10 0 6.087 3.679 10 9.576 10 5.708 0 9.645-4.476 9.645-10 0-6.087-3.75-10-9.645-10zm0 16.593c-3.323 0-5.475-2.813-5.475-6.593s2.16-6.593 5.475-6.593c3.315 0 5.389 2.813 5.389 6.593s-2.076 6.593-5.389 6.593z"/></svg>