<svg xmlns="http://www.w3.org/2000/svg" width="190" height="35" fill="none"><path fill="#fff" d="M61.07 23.08c-2.736 0-4.34-2.14-4.34-4.561 0-2.8 1.824-4.656 4.34-4.656 1.322 0 2.203.535 3.02 1.038l1.322-2.36c-.944-.597-2.517-1.32-4.184-1.32-4.341 0-7.456 3.082-7.456 7.297 0 4.184 3.178 7.299 7.456 7.299 1.825 0 3.146-.755 4.184-1.384l-1.321-2.36c-.818.566-2.045 1.007-3.02 1.007zm9.28-18.31h2.8v20.67h-2.8V4.771zm18.938 6.89-.314 1.195c-.755-.818-2.36-1.636-4.059-1.636-3.46 0-6.637 2.737-6.637 7.204 0 4.624 3.177 7.424 6.637 7.424 1.7 0 3.24-.818 4.058-1.636l.315 1.259h2.36V11.755h-2.36v-.094zm-.252 6.952c0 3.146-1.918 4.561-3.743 4.561-1.856 0-3.995-1.258-3.995-4.718 0-2.202 1.164-4.562 3.775-4.562 1.982 0 3.963 1.605 3.963 4.562v.157zm12.615 1.1c1.919.504 2.737.882 2.737 1.857 0 .755-.661 1.541-2.202 1.541-1.416 0-2.58-.503-3.68-1.1l-1.26 2.359c.976.597 3.147 1.415 4.94 1.415 3.083 0 4.875-2.076 4.875-4.184 0-3.617-3.554-4.183-4.498-4.498-1.982-.535-2.485-.944-2.485-1.762 0-.88.755-1.478 2.202-1.478 1.258 0 2.202.377 3.084.818l1.32-2.36c-1.258-.534-2.737-1.1-4.404-1.1-3.02 0-4.844 2.138-4.844 4.12 0 3.178 2.674 3.995 4.215 4.373zm15.005 0c1.919.504 2.737.882 2.737 1.857 0 .755-.661 1.541-2.202 1.541-1.416 0-2.58-.503-3.681-1.1l-1.258 2.359c.975.597 3.146 1.415 4.939 1.415 3.083 0 4.876-2.076 4.876-4.184 0-3.617-3.555-4.183-4.498-4.498-1.983-.535-2.486-.944-2.486-1.762 0-.88.756-1.478 2.202-1.478 1.259 0 2.202.377 3.084.818l1.321-2.36c-1.259-.534-2.737-1.1-4.405-1.1-3.019 0-4.844 2.138-4.844 4.12-.032 3.178 2.674 3.995 4.215 4.373zm17.553-8.493c-1.698 0-3.239.818-4.057 1.636l-.315-1.258h-2.359v19.535h2.642v-6.795l.095-.063c.755.818 2.296 1.479 3.775 1.479 3.554 0 6.857-2.297 6.857-7.424.063-4.593-3.114-7.11-6.638-7.11zm-.314 11.954c-1.824 0-3.743-1.415-3.743-4.561v-.157c0-3.02 1.981-4.562 3.964-4.562 2.641 0 3.775 2.36 3.775 4.562 0 3.46-2.14 4.718-3.996 4.718zm22.619-11.513-.315 1.258c-.755-.818-2.359-1.636-4.058-1.636-3.461 0-6.638 2.737-6.638 7.204 0 4.624 3.177 7.424 6.638 7.424 1.699 0 3.239-.818 4.058-1.636l.315 1.259h2.359V11.818h-2.359v-.157zm-.284 6.952c0 3.146-1.919 4.561-3.744 4.561-1.856 0-3.994-1.258-3.994-4.718 0-2.202 1.163-4.562 3.775-4.562 1.981 0 3.963 1.605 3.963 4.562v.157zm12.646 1.1c1.919.504 2.736.882 2.736 1.857 0 .755-.66 1.541-2.202 1.541-1.415 0-2.579-.503-3.68-1.1l-1.258 2.359c.975.597 3.146 1.415 4.938 1.415 3.084 0 4.876-2.076 4.876-4.184 0-3.617-3.554-4.183-4.497-4.498-1.983-.535-2.486-.944-2.486-1.762 0-.88.755-1.478 2.202-1.478 1.259 0 2.202.377 3.084.818l1.32-2.36c-1.258-.534-2.736-1.1-4.404-1.1-3.02 0-4.845 2.138-4.845 4.12-.031 3.178 2.674 3.995 4.216 4.373zm14.974 0c1.919.504 2.736.882 2.736 1.857 0 .755-.66 1.541-2.202 1.541-1.415 0-2.579-.503-3.68-1.1l-1.258 2.359c.975.597 3.146 1.415 4.938 1.415 3.084 0 4.876-2.076 4.876-4.184 0-3.617-3.554-4.183-4.498-4.498-1.982-.535-2.485-.944-2.485-1.762 0-.88.755-1.478 2.202-1.478 1.258 0 2.202.377 3.082.818l1.322-2.36c-1.258-.534-2.737-1.1-4.404-1.1-3.02 0-4.845 2.138-4.845 4.12 0 3.178 2.706 3.995 4.216 4.373zM29.767.4h-5.065c-.88 0-1.761.66-1.856 1.54l-.755 3.618c-.094.661-.66 1.101-1.321 1.101h-5.6C7.59 6.754.575 12.48.575 20.595c0 7.236 6.04 13.842 14.722 13.842h5.726c.88 0 1.761-.661 1.856-1.542l.755-3.618c.094-.66.66-1.1 1.32-1.1h4.94c8.462 0 14.722-6.48 14.722-13.842C44.489 6.22 37.568.4 29.767.4zm-.126 22.397h-5.945c-.881 0-1.636.66-1.856 1.542l-.755 3.523c-.095.66-.661 1.101-1.322 1.101H15.36c-4.498 0-9.343-3.177-9.343-8.462 0-4.845 4.279-8.462 9.343-8.462h6.795c.881 0 1.636-.66 1.856-1.542l.755-3.523c.095-.66.66-1.101 1.321-1.101h3.524c4.718 0 9.343 3.303 9.343 8.462-.063 4.719-4.121 8.462-9.312 8.462z"/></svg>