<svg xmlns="http://www.w3.org/2000/svg" id="Calque_1" data-name="Calque 1" viewBox="0 0 156.72 85.04"><defs><style>.cls-1{fill:#fff;}</style></defs><rect class="cls-1" width="85.04" height="85.04"></rect><path class="cls-1" d="M183,170v-5.32a10,10,0,0,1-1.82,2.32,14.2,14.2,0,0,1-3.86,2.74,12.25,12.25,0,0,1-5.6,1.22,15.07,15.07,0,0,1-8.4-2.34,15.9,15.9,0,0,1-5.6-6.28,20.1,20.1,0,0,1,0-17.48,16,16,0,0,1,5.6-6.3,15,15,0,0,1,8.4-2.36,13.88,13.88,0,0,1,5.4,1,12.7,12.7,0,0,1,3.76,2.32,9,9,0,0,1,2,2.46v-4.8H195V170Zm-15.36-16.4a7.87,7.87,0,0,0,1,4,7.49,7.49,0,0,0,2.78,2.78,8,8,0,0,0,7.74,0,7.19,7.19,0,0,0,2.66-2.78,8.74,8.74,0,0,0,0-8,7.6,7.6,0,0,0-10.4-2.8,7.62,7.62,0,0,0-2.78,2.8A7.87,7.87,0,0,0,167.64,153.58Z" transform="translate(-60.72 -99.94)"></path><path class="cls-1" d="M210.52,130.38a6.86,6.86,0,0,1-6.88-6.84,6.69,6.69,0,0,1,2-4.86,6.59,6.59,0,0,1,4.86-2.06,6.52,6.52,0,0,1,3.44.94,7.44,7.44,0,0,1,2.52,2.5,6.74,6.74,0,0,1-1.08,8.3,6.68,6.68,0,0,1-4.88,2ZM204.28,170V137.14h12.16V170Z" transform="translate(-60.72 -99.94)"></path><polygon points="46.65 37.2 53.59 44.08 60.38 37.2 46.65 37.2"></polygon><polygon points="35.22 48.6 35.22 15 23.06 15 23.06 60.87 35.22 48.6"></polygon><polygon points="44.92 52.91 38.08 59.82 47.9 70.04 61.98 70.04 44.92 52.91"></polygon><polygon points="27.95 70.04 35.22 70.04 35.22 62.71 27.95 70.04"></polygon></svg>